<svg version="1" xmlns="http://www.w3.org/2000/svg" width="917.333" height="917.333" viewBox="0 0 688.000000 688.000000"><path d="M90.4 84.3c-.4 2.3-.8 4.6-.9 5.2 0 .5-.4 3-.9 5.5s-1 5.6-1.2 7c-.1 1.4-.5 3.6-.8 5-.3 1.3-.8 4-1.1 6-.3 2-.7 4.5-.9 5.5-.2 1.1-.7 4-1.1 6.5-.4 2.5-.9 5.4-1.1 6.5-.2 1.1-.7 3.3-.9 5-.3 1.6-1.4 7.9-2.5 14-1.1 6-2.1 12.6-2.4 14.5-.3 1.9-.8 4.8-1.1 6.5-2.1 11.1-3.6 19.6-4.1 23.4-.3 2.5-.7 4.8-.9 5.1-.2.4-.7 2.9-1.1 5.6-.3 2.7-.8 5.8-1 6.9-.2 1.1-.6 3.3-.9 5-.3 1.6-.7 4.1-1 5.5-.3 1.4-.7 4.1-1 6-.3 1.9-.8 4.2-1 5-.2.8-.7 3.3-1 5.5-.3 2.3-.8 5.2-1.1 6.5-.3 1.4-.7 4.2-.9 6.2-.2 2-.6 4.5-.9 5.5-.3 1-.7 3.1-1 4.8-.8 4.9-3.7 21.8-4.2 25-.3 1.6-.7 4.3-.9 6-.2 1.6-.4 3-.5 3-.2 0-.9 3.7-1.5 7.9-.3 2.1-.7 4.1-.9 4.5-.2.3-.7 2.8-1 5.6-.3 2.7-.8 6.1-1.1 7.5-.6 2.8-1.4 7.1-2.1 11.5-.2 1.6-1.1 6.6-1.9 11-.8 4.4-1.7 9.6-2 11.5-.3 1.9-.7 4.6-1 6-.3 1.4-.7 3.8-1 5.5-.3 1.6-.7 4.1-1 5.5-.2 1.3-.7 4-1 6-.3 2-.8 4.7-1 6-.3 1.4-.8 4.5-1.1 7-.3 2.5-.8 4.8-1 5.1-.1.3-.6 2.8-1 5.5-.6 4.9-.9 6.6-1.9 11.4-.2 1.4-.7 4.1-1 6-.5 2.9-2.5 14.5-5 28.5-1.1 6.5-2.8 16.1-3 17.5-.2 1.8-1.6 9.7-2.1 12.5-.2 1.1-.6 3.3-.9 5-.3 1.6-.7 4.1-1 5.5-.3 1.4-.7 4.1-1 6-.3 1.9-1 5.7-1.5 8.5-.9 5-1.9 11.2-2.5 15.2-.2 1.2-.6 3.4-.9 5-.3 1.5-.9 4.5-1.2 6.7-.3 2.1-.8 4.8-1 6-.2 1.1-.7 3.6-1 5.5-.3 1.8-.8 4.3-1 5.5-.2 1.1-.7 4.1-1 6.6-.3 2.5-.8 4.7-.9 5-.2.3-.6 2.6-1 5-.3 2.5-1 6.7-1.5 9.5-.5 2.7-1.2 6.6-1.5 8.5-1.7 10-3.6 20.8-4.1 23.2l-.6 2.8h296.1c162.9 0 296.1-.3 296.2-.8 0-.4.2-1.4.4-2.2.2-.8.6-3.3 1-5.5.3-2.2.8-4.7 1-5.5.2-.8.7-3.1 1-5 .3-1.9 1.2-7.1 2.1-11.5.8-4.4 2.2-11.8 3-16.5 2.1-11.4 2.2-12 2.9-16 .3-1.9 1.2-6.9 2-11s1.7-8.9 2-10.5c.2-1.7.7-3.9.9-5 .2-1.1.7-4 1.1-6.5.4-2.5.9-5.3 1.1-6.3 1-4.2 1.2-5.5 1.9-10.2.5-2.8.9-5.2 1-5.5.1-.3.5-2.5.9-5 .5-2.5 1-5.4 1.2-6.5.2-1.1.7-3.4 1-5 .3-1.7.7-4.1.9-5.5.2-1.4.8-5 1.4-8 .7-3 1.4-7 1.7-8.9.3-1.8.8-4.3 1-5.5 1.1-5.8 2.7-14.3 3-16.1.1-1.1.9-5.6 1.8-10 .8-4.4 1.8-10 2.1-12.5.4-2.4.8-4.7 1-5 .2-.3.6-2.4.9-4.6.4-2.2.9-5.1 1.2-6.4.2-1.4.7-3.6.9-5 .2-1.4.9-5 1.4-8 .6-3 1.7-9.3 2.6-14 1.5-8.5 2-11.3 3-16 .2-1.4.7-4.1 1-6 .9-5.2 1.4-8.2 2-11 .4-1.4.8-3.9 1.1-5.5.2-1.7 1.1-6.4 1.9-10.5.7-4.1 1.6-9.2 2-11.4.3-2.1.7-4.1 1-4.5.2-.4.6-2.7.9-5.2.3-2.4 1-6.9 1.6-9.9.6-3 1.3-6.6 1.6-8 .2-1.4.7-3.6 1-4.8.2-1.3.7-4.3 1-6.5.3-2.3.9-5.8 1.4-7.7.5-1.9 1.2-5.8 1.6-8.5.3-2.8.8-5.3 1-5.6.2-.4.6-2.4.9-4.5.5-3.7.8-5.3 2-11.4.3-1.4.9-5 1.5-8 .5-3 1.2-6.9 1.5-8.5 1.8-9.6 2.7-14.2 3-16 .4-2.9 1.4-8.6 2-11.5.3-1.4.8-3.6 1-5 .3-1.4.7-3.9 1-5.5.2-1.7.6-4 .9-5.1.4-2 .6-3.4 2.2-13.2.3-2 .7-3.9.9-4.2.2-.3.6-2.6 1-5 .3-2.5 1.3-7.7 2-11.5.8-3.9 1.6-8.6 1.9-10.5.2-1.9.7-4.2 1-5 .2-.8.7-3.3 1-5.5.3-2.2.8-5.1 1.1-6.5.7-3.3 1.5-7.9 2-11 .2-1.4.6-3.6.9-5 .3-1.4.8-3.9 1.2-5.5l.5-3-85.8-.2c-47.2-.1-181.5-.4-298.5-.7L91.2 80l-.8 4.3zM303.2 191c.8 3.9 1.2 5.6 2.8 13.9.6 3.1 1.5 7.2 2 9.1.5 1.9 1.1 4.8 1.4 6.5.3 1.6 1.7 8.4 3.1 15 1.4 6.6 2.7 13 3 14.3.2 1.2.6 3 .9 4 .3.9.8 3.1 1 4.7.3 1.7.7 4.1 1 5.5 2 9.4 5.9 28 6.3 30.5.2 1.6.9 4.8 1.5 7 .5 2.2 1.2 5.1 1.4 6.5.2 1.4.5 3.4.8 4.5 1.4 6.1 3.8 17.5 4.2 20.5.8 4.9 2.3 7.4 2.4 3.8 0-1.5.5-3 1-3.3.6-.4.8-1 .5-1.5-.3-.4.1-3.9.9-7.7.8-3.7 1.7-8.2 2-9.8 1-6.1 2.5-14.1 3.1-16.5.3-1.4.7-3.9 1-5.5.6-4.1 1.5-8.7 2-10.5.2-.8.7-3.1 1-5 .3-1.9 1-5.8 1.5-8.5.5-2.8 1.1-6.1 1.4-7.5.4-2.2 3.2-17.4 4.2-22.5.2-1.1.8-4.5 1.4-7.5.6-3 1.2-6.4 1.4-7.5.2-1.1 1.1-5.8 2-10.5.9-4.7 1.8-9.6 2.1-11 .3-1.4.8-3.9 1-5.5.2-1.7.6-3.9.9-5 .2-1.1.5-2.5.5-3.2.1-.8 8.5-1.1 32.1-1.1h32.1l-.5 3.1c-1.2 7-1.7 9.4-2.6 13.7-.5 2.5-1.2 6.1-1.5 8-.4 1.9-1.8 9.3-3.2 16.5-1.4 7.1-2.6 13.9-2.8 15-.2 1.1-1 5.6-1.9 10-.8 4.4-1.8 9.5-2.1 11.3-.3 1.8-1.2 6.4-2 10.3-.8 3.8-1.7 8.4-1.9 10.2-.4 3-4 21.8-5.1 26.2-.4 2 0 2 60 2 33.2 0 60.6-.3 61-.7.7-.7.8-.9 2-8.3.5-2.8 1-5.2 1-5.5.1-.3.5-2.8 1-5.5 1-5.7 1.2-6.4 1.4-6.8.2-.1.4-1.4.6-3 .2-1.5.9-5.1 1.5-8 .5-2.8 1.2-6.6 1.4-8.2.2-1.7 1.1-6.2 2-10 .8-3.9 1.7-8.4 2-10 .3-1.7 1-5.5 1.6-8.5.6-3 1.2-6.6 1.5-8 .5-3.1 1.4-7.8 2-11 .3-1.4.7-3.6 1-5 .2-1.4 1.1-6.1 2-10.5.9-4.4 1.8-8.9 1.9-10 .2-1.1.7-3.2 1.1-4.7l.7-2.7 31.7.1h31.8l-.9 4.6c-.5 2.6-1.1 5.8-1.3 7.2-.3 1.4-.7 3.4-.9 4.5-.6 3.3-4.8 24.8-5.2 27.5-.3 1.4-1.1 5.6-1.9 9.5-.8 3.8-1.7 8.6-2 10.5-.3 1.9-.8 4.2-1 5-.2.8-.7 3.1-1 5-.3 1.9-1 5.4-1.6 7.8-.5 2.3-1.2 5.9-1.5 8-.3 2-1 5.7-1.6 8.2-.5 2.5-1.1 5.6-1.3 7-.3 1.4-.7 3.6-1 5-.4 2.1-2 10.3-5.1 26.5-.2 1.1-.8 4.2-1.4 7-.6 2.7-1.2 5.9-1.4 7-.6 3.8-3.7 20-4.7 24.5-1 4.6-1.5 7.5-2.3 12-.3 1.4-.5 2.5-.6 2.5-.1 0-.3.9-.4 2-.2 1.6-1.5 8.8-2.1 11.5-.4 2.2-1.6 8-2 10-.2 1.4-1.2 6.1-2 10.5s-1.7 9.1-1.9 10.5c-.3 1.4-.5 2.5-.6 2.5-.1 0-.3 1.1-.6 2.5-.2 1.4-.9 5-1.5 8s-1.2 6.6-1.5 8c-.3 1.4-1.2 6.1-2 10.5-.9 4.4-1.8 8.9-1.9 10-.2 1.1-.6 2.9-.8 4-.2 1.1-.7 3.6-1.1 5.5-.3 1.9-.8 4.6-1.1 6-.3 1.4-.8 3.8-1 5.5-.3 1.6-.8 3.7-1 4.5-.2.8-.7 2.8-.9 4.5-.3 1.6-.8 4.2-1.1 5.6l-.6 2.7-31.7-.2c-31.1-.1-31.7-.1-31.5-2.1.4-3.3 1.4-9.7 2.4-14.5.5-2.5 1.1-6.1 1.4-8 .4-3.4.8-5.6 2-11 .3-1.4.7-3.9 1-5.5.2-1.7 1.4-8 2.5-14 1.2-6.1 2.3-12.1 2.5-13.5.2-1.4 1.1-6.6 2-11.5 1-5 1.9-10 2.1-11.3.2-1.2.6-3.4.9-5 .3-1.5 1.2-6.8 2.1-11.7.9-5 1.8-10.3 2-11.9.2-1.6.8-4.3 1.2-6 .4-1.7.8-3.7.7-4.5 0-1.7-5.2-3.4-6.1-2-.3.5-1 .7-1.5.3-.6-.3-3.6-.5-6.7-.5-3.1.1-6.5.1-7.4.1h-4.3c-1.4.1-3.7.1-5.2.1-1.6.1-3.9 0-5.3 0-1.4-.1-3.3-.1-4.2-.1h-7.3c-3 0-6.1.1-6.7.1h-7.3c-3.3-.1-6.8-.1-7.7-.1h-4c-1.3 0-3.4.1-4.8.3-1.4.1-4 0-5.8-.4-1.7-.4-3.5-.3-3.8.2-.3.5-1 .7-1.5.4-.8-.6-10.3-.9-12.4-.5-.5.1-1.4.1-2 0-.5-.1-3.7-.1-7-.1-3.3.1-6.8.2-7.7.2-2.5 0-2.9 1-4.4 11.2-.7 4.7-1.2 7.2-1.4 7.2-.1 0-.3 1.1-.5 2.5s-.8 5.2-1.4 8.5c-.6 3.3-1.4 7.3-1.6 9-.6 3.2-3.5 18.9-4 21.6-.2.9-.6 3.2-.9 5-.3 1.9-.8 4.5-1.1 5.9-.2 1.3-.7 4.2-1 6.5-.3 2.2-.8 4.8-1.1 5.8-.4 1.1-.7 2.9-.9 4-.3 2.3-1 6.1-2.5 14.2-.5 2.7-1.1 6.3-1.4 8-.2 1.6-.9 5.2-1.4 8-.6 2.7-.8 5.3-.6 5.7.3.5.2.8-.3.8-.4 0-.9 1.6-1.1 3.6-.1 2-.4 4-.7 4.4-.3.5-16 .8-34.9.9-35.3 0-36.2-.1-36.4-3.9 0-.8-.8-5.3-1.6-10-.9-4.7-2.3-12.1-3.1-16.5-.8-4.4-1.7-9.1-2-10.5-1.1-5.6-2.8-14.6-3-16.8-.5-3.2-.6-3.3-6.1-3.2-2.7.1-6 .1-7.4.1h-12c-10.9.1-10.8.1-13.5-.1-1.1-.1-5.8-.2-10.5-.1h-10c-.8-.1-3.5 0-6 0h-6c-.8 0-5.3-.1-10 0-14 .1-23.9.1-27.7 0-1.6-.1-5.4 0-8.6.1-5.8.3-5.9.3-8.8 4.9-1.6 2.5-2.9 5.1-2.9 5.8 0 .6-.3 1.3-.8 1.5-.7.3-2.3 3-9.7 17.3-2.1 3.8-4.2 7.7-4.9 8.5-.6.8-2.2 3.5-3.4 6-4.1 8.2-8.4 15.5-9.5 16.2-1.3.8-67.7.9-67.7.1 0-.7 4.4-8.7 5.1-9.3.4-.3 1.6-2.3 2.8-4.5 1.2-2.2 2.7-4.9 3.4-6 3.3-5.4 7.6-12.5 9.9-16.5 4.2-7.4 12.6-21.4 13.5-22.5.4-.6 1.9-3 3.2-5.5 1.3-2.5 2.9-5.2 3.6-6 .7-.8 1.9-2.9 2.7-4.5.9-1.7 7.9-13.5 15.7-26.4 7.7-12.9 14.1-23.8 14.1-24.3 0-.4.4-.8.8-.8s1.3-1.2 2-2.8c1.3-3 4.4-8.4 5.2-9.2.3-.3 1.1-1.6 1.8-3s2.6-4.5 4.2-7 3.3-5.2 3.7-6c.3-.8 2.1-3.9 4-6.8 1.8-2.9 3.3-5.5 3.3-5.7 0-.3 2.1-3.7 4.6-7.6 2.5-4 4.9-7.9 5.2-8.8.3-.9 1-2.1 1.4-2.6.5-.6 4.5-7.1 8.8-14.5 4.4-7.4 8.4-14.2 9-15 .7-1.2 9.5-15.8 14.5-24.2.5-1 3.3-5.5 6-10 2.8-4.6 5.2-8.8 5.4-9.3.2-.6 1.6-2.8 3-5 3.3-5.2 4.1-6.6 6.8-11.4 1.2-2.2 3.5-6 5-8.3 1.5-2.4 3.6-5.9 4.8-7.8 1.1-2 4.4-7.7 7.4-12.7l5.4-9.2 28.1.2 28 .2.8 3.5z"/><path d="M254.8 265.7c-1 2.1-3.6 7.2-5.8 11.3-2.3 4.1-6.9 12.7-10.2 19-8.1 15.2-8.2 15.4-8.8 16-.3.3-2 3.4-3.8 7-1.8 3.6-5.7 11-8.8 16.5-3 5.5-6.5 12-7.7 14.5-1.2 2.5-2.4 4.7-2.7 5-.3.3-1.2 1.8-2 3.5-.8 1.6-4.5 8.4-8.1 15.1-3.6 6.7-6.9 12.8-7.2 13.7-.5 1.4 3.8 1.6 44.7 1.6l45.4-.1-.5-3.1c-.2-1.8-.6-4.3-.9-5.7-.2-1.4-1.3-7.7-2.4-14-1.2-6.3-2.3-13-2.6-14.9-.3-1.8-.8-4.3-1-5.5-.3-1.7-1.8-10.4-3.9-22.6-.3-1.4-.7-3.6-.9-5-.3-1.4-.8-4.1-1-6-.3-1.9-.8-4.6-1.1-6-.3-1.4-.7-4.2-1-6.4-.3-2.1-.7-4.1-.9-4.5-.2-.3-.7-2.9-1-5.6-.4-2.8-.9-5.9-1.1-7-.5-1.9-.8-3.9-2.1-11.5-.4-1.9-.8-4.2-.9-5-.2-.8-.4-2.1-.4-2.8-.2-2.3-1.6-1.2-3.3 2.5z"/></svg>