<?xml version="1.0" encoding="utf-8"?>
<!-- Generator: Adobe Illustrator 22.1.0, SVG Export Plug-In . SVG Version: 6.00 Build 0)  -->
<!DOCTYPE svg PUBLIC "-//W3C//DTD SVG 1.1//EN" "http://www.w3.org/Graphics/SVG/1.1/DTD/svg11.dtd">
<svg version="1.1" id="Layer_1" xmlns="http://www.w3.org/2000/svg" xmlns:xlink="http://www.w3.org/1999/xlink" x="0px" y="0px"
	 viewBox="0 0 546.1 128.5" style="enable-background:new 0 0 546.1 128.5;" xml:space="preserve">
<style type="text/css">
	.st0{fill:#FFFFFF;}
	.st1{fill:#E32329;}
</style>
<g>
	<g>
		<polygon class="st0" points="178.1,16.1 139.3,16.1 137.2,27 150.5,27 141,77.3 153.3,77.3 162.8,27 176.1,27 		"/>
		<polygon class="st0" points="191.9,27 214,27 216,16.1 181.5,16.1 170,77.6 204.5,77.6 206.5,66.7 184.4,66.7 187.3,51.8 
			206.8,51.8 208.8,40.8 189.3,40.8 		"/>
		<path class="st0" d="M308.3,40.8h-23.6l4.6-24.7H277l-3.3,18c-1.9-8.6-9.8-19.2-25.4-19.2c-19.3,0-35.1,15.2-38,31.6
			c-3.2,17,7.5,31.9,26.2,31.9c13.1,0,26-7.8,32.6-19.1l-3.3,17.9h12.4l4.9-25.9h23.6l-4.9,25.9h12.4l11.2-61.2h-12.4L308.3,40.8z
			 M257.1,56.9c-1.4,2.3-8.1,10.9-19,10.9c-11.8,0-17.8-9.8-15.8-21c2-10.9,11.8-21,23.6-21c9.8,0,14.1,6.9,15.2,11.2h12l-3.6,19.8
			H257.1z"/>
		<polygon class="st0" points="386.2,16.1 378.8,58.7 358.6,16.1 347.7,16.1 336.5,77.3 348.3,77.3 355.8,35.1 376.2,77.3 
			387.1,77.3 398,16.1 		"/>
		<polygon class="st0" points="499.2,16.1 480.5,60.7 478,16.1 468.5,16.1 449.5,60.4 447.2,16.1 437.1,16.1 434.5,16.1 402.6,16.1 
			391.1,77.6 425.6,77.6 427.6,66.7 405.5,66.7 408.4,51.8 427.9,51.8 429.9,40.8 410.4,40.8 413,27 435.1,27 435.3,25.9 
			439.4,77.3 450.9,77.3 469.6,33.9 472.5,77.3 483.7,77.3 511.6,16.1 		"/>
		<path class="st0" d="M527.4,25.3c6,0,6.3,4.6,6.3,7.5h12.1c2-13.5-8.1-17.8-16.1-17.8c-9.8,0-21.6,6.3-23.6,18.1
			c-2.3,11.5,7.8,15.2,12.1,17c8.1,3.5,12.1,4.9,11.2,10.1c-0.9,4.3-5.2,8.1-9.8,8.1c-2.9,0-8.1-1.4-6.9-9.8h-12.7
			c-2.3,11.8,3.5,20.1,17.3,20.1c14.7,0,22.4-9.2,24.2-19c1.7-8.6-2.6-13.2-11.2-17.3c-9.8-4.3-12.7-5.5-11.8-10.1
			C519.4,28.2,523.4,25.3,527.4,25.3z"/>
	</g>
	<path class="st0" d="M41.5,10.9L1,92.6h108.1l15.5-83.7L41.5,10.9z"/>
	<g>
		<polygon class="st1" points="36.9,56.1 55,56.1 50.7,30.5 		"/>
		<path class="st1" d="M19.3,0L0,94.9h116.5L134.4,0H19.3z M109.6,78.5H97l4.9-26.5H77.7l-4.9,26.5l0,0l0,0H60.2H59l-2.6-12.1H31.7
			l-6.9,12.1H11l37.4-63h10.9l6.6,30.8l5.8-30.8h12.7l-4.6,25.3h24.2l4.6-25.3h12.7L109.6,78.5z"/>
	</g>
</g>
<g>
	<path class="st0" d="M25,107.8h-5v-3h13.3v3h-5v18.5H25V107.8z"/>
	<path class="st0" d="M33.8,115.6c0-6.8,5.2-11.3,11.3-11.3c6.4,0,11.3,5,11.3,11.2c0,6.2-4.9,11.2-11.3,11.2
		C38.6,126.7,33.8,121.6,33.8,115.6L33.8,115.6z M37.2,115.5c0,4.5,3.3,8.2,7.9,8.2c4.7,0,7.8-3.9,7.8-8.1c0-4.2-3.1-8.2-7.8-8.2
		C40.4,107.3,37.2,111.1,37.2,115.5L37.2,115.5z"/>
	<path class="st0" d="M59.9,126.3v-21.6h4.7l6.7,16.7l6.6-16.7h4.7v21.6h-3.2l0.1-18.2l-7.1,18.2h-2.2L63,108.1l0.1,18.2H59.9z"/>
	<path class="st0" d="M86.1,115.6c0-6.8,5.2-11.3,11.3-11.3c6.4,0,11.3,5,11.3,11.2c0,6.2-4.9,11.2-11.3,11.2
		C90.9,126.7,86.1,121.6,86.1,115.6L86.1,115.6z M89.5,115.5c0,4.5,3.3,8.2,7.9,8.2c4.7,0,7.8-3.9,7.8-8.1c0-4.2-3.1-8.2-7.8-8.2
		C92.7,107.3,89.5,111.1,89.5,115.5L89.5,115.5z"/>
	<path class="st0" d="M112.1,104.7h6.1c3.4,0,5.1,0.5,6.3,1.3c1.8,1.2,2.9,3.4,2.9,5.8c0,1.5-0.4,3-1.2,4.1
		c-1.1,1.5-2.5,2.1-4.2,2.4l5.1,8h-3.6l-5.9-9.7h0.8c1.5,0,3.3-0.1,4.3-0.9c1-0.9,1.5-2.1,1.5-3.5c0-1.5-0.7-2.9-1.8-3.6
		c-0.9-0.6-2.1-0.7-3.7-0.7h-2.9v18.5h-3.4V104.7z"/>
	<path class="st0" d="M130.1,104.7h6.1c3.4,0,5.1,0.5,6.3,1.3c1.8,1.2,2.9,3.4,2.9,5.8c0,1.5-0.4,3-1.2,4.1
		c-1.1,1.5-2.5,2.1-4.2,2.4l5.1,8h-3.6l-5.9-9.7h0.8c1.5,0,3.3-0.1,4.3-0.9c1-0.9,1.5-2.1,1.5-3.5c0-1.5-0.7-2.9-1.8-3.6
		c-0.9-0.6-2.1-0.7-3.7-0.7h-2.9v18.5h-3.4V104.7z"/>
	<path class="st0" d="M147.3,115.6c0-6.8,5.2-11.3,11.3-11.3c6.4,0,11.3,5,11.3,11.2c0,6.2-4.9,11.2-11.3,11.2
		C152.1,126.7,147.3,121.6,147.3,115.6L147.3,115.6z M150.7,115.5c0,4.5,3.3,8.2,7.9,8.2c4.7,0,7.8-3.9,7.8-8.1
		c0-4.2-3.1-8.2-7.8-8.2C154,107.3,150.7,111.1,150.7,115.5L150.7,115.5z"/>
	<path class="st0" d="M171.3,104.7h3.5l4.3,16.9l4.2-16.9h2.6l4.3,16.9l4.2-16.9h3.5l-5.9,21.6h-3.2l-4.2-16.4l-4.2,16.4h-3.3
		L171.3,104.7z"/>
	<path class="st0" d="M201.9,104.7h2.7l-2.6,6h-2.4L201.9,104.7z"/>
	<path class="st0" d="M211.9,119.9c0.2,3.2,2.5,3.9,3.6,3.9c1.9,0,3.6-1.5,3.6-3.4c0-2.4-2-2.9-4.8-4c-1.7-0.6-5.5-1.8-5.5-5.9
		c0-4,3.4-6.2,6.8-6.2c2.8,0,6.2,1.5,6.5,5.9h-3.4c-0.2-1.2-0.8-3-3.2-3c-1.7,0-3.3,1.2-3.3,3c0,2.1,1.6,2.6,5.1,3.9
		c2.7,1.1,5.2,2.5,5.2,6c0,3.5-2.4,6.5-7,6.5c-4.3,0-7-2.6-7.1-6.8H211.9z"/>
	<path class="st0" d="M235.3,107.8h-5v-3h13.3v3h-5v18.5h-3.4V107.8z"/>
	<path class="st0" d="M246.3,104.7h12.1v3h-8.6v6.1h8.5v3h-8.5v6.4h8.6v3h-12.1V104.7z"/>
	<path class="st0" d="M282.9,119.7c-1.3,3.9-5.3,7-10.2,7c-6.5,0-11.3-5.1-11.3-11.2c0-5.9,4.6-11.2,11.3-11.2
		c5.8,0,9.2,4.1,10.3,7.1h-3.6c-0.7-1.4-2.9-4-6.7-4.1c-4.6,0-7.8,3.8-7.8,8.1c0,4.5,3.3,8.2,7.8,8.2c4.2,0,6.2-3.1,6.6-3.9H282.9z"
		/>
	<path class="st0" d="M286.2,126.3v-21.6h3.4v9.1h9.3v-9.1h3.4v21.6H299v-9.4h-9.3v9.4H286.2z"/>
	<path class="st0" d="M308.3,128.5h-2.6l1.8-6h3.2L308.3,128.5z"/>
	<path class="st0" d="M321.6,107.8h-5v-3H330v3h-5v18.5h-3.4V107.8z"/>
	<path class="st0" d="M330.4,115.6c0-6.8,5.2-11.3,11.3-11.3c6.4,0,11.3,5,11.3,11.2c0,6.2-4.9,11.2-11.3,11.2
		C335.1,126.7,330.4,121.6,330.4,115.6L330.4,115.6z M333.8,115.5c0,4.5,3.3,8.2,7.9,8.2c4.7,0,7.8-3.9,7.8-8.1
		c0-4.2-3.1-8.2-7.8-8.2C337,107.3,333.8,111.1,333.8,115.5L333.8,115.5z"/>
	<path class="st0" d="M356.5,104.7h6.7c2.9,0,6.5,0.4,8.9,3.5c1.6,2,2.4,4.4,2.4,7.3c0,6.3-3.4,10.8-11,10.8h-6.9V104.7z
		 M359.9,123.3h3.6c5.1,0,7.4-3.2,7.4-7.7c0-2.1-0.6-4.1-1.7-5.5c-1.1-1.3-2.9-2.3-5.6-2.3h-3.7V123.3z"/>
	<path class="st0" d="M378.4,126.3h-3.7l8.9-21.6h3.1l8.7,21.6h-3.7l-2-5.1h-9.2L378.4,126.3z M385,108.7l-3.6,9.7h7.3L385,108.7z"
		/>
	<path class="st0" d="M400.2,118.6l-6.8-13.9h3.7l4.7,10.7l4.8-10.7h3.7l-6.8,13.9v7.7h-3.4V118.6z"/>
	<path class="st0" d="M414.4,104.7h2.7l-2.6,6h-2.4L414.4,104.7z"/>
	<path class="st0" d="M424.4,119.9c0.2,3.2,2.5,3.9,3.6,3.9c1.9,0,3.6-1.5,3.6-3.4c0-2.4-2-2.9-4.8-4c-1.7-0.6-5.5-1.8-5.5-5.9
		c0-4,3.4-6.2,6.8-6.2c2.8,0,6.2,1.5,6.5,5.9h-3.4c-0.2-1.2-0.8-3-3.2-3c-1.7,0-3.3,1.2-3.3,3c0,2.1,1.6,2.6,5.1,3.9
		c2.7,1.1,5.2,2.5,5.2,6c0,3.5-2.4,6.5-7,6.5c-4.3,0-7-2.6-7.1-6.8H424.4z"/>
	<path class="st0" d="M461.7,121.1l-0.1-16.4h3.3v21.6h-3.1l-11.3-16.4l0.1,16.4h-3.3v-21.6h3.2L461.7,121.1z"/>
	<path class="st0" d="M469.4,104.7h12.1v3h-8.6v6.1h8.5v3h-8.5v6.4h8.6v3h-12.1V104.7z"/>
	<path class="st0" d="M483.7,104.7h3.5l4.3,16.9l4.2-16.9h2.6l4.3,16.9l4.2-16.9h3.5l-5.9,21.6h-3.2l-4.2-16.4l-4.2,16.4h-3.3
		L483.7,104.7z"/>
	<path class="st0" d="M515.4,119.9c0.2,3.2,2.5,3.9,3.6,3.9c1.9,0,3.6-1.5,3.6-3.4c0-2.4-2-2.9-4.8-4c-1.7-0.6-5.5-1.8-5.5-5.9
		c0-4,3.4-6.2,6.8-6.2c2.8,0,6.2,1.5,6.5,5.9h-3.4c-0.2-1.2-0.8-3-3.2-3c-1.7,0-3.3,1.2-3.3,3c0,2.1,1.6,2.6,5.1,3.9
		c2.7,1.1,5.2,2.5,5.2,6c0,3.5-2.4,6.5-7,6.5c-4.3,0-7-2.6-7.1-6.8H515.4z"/>
</g>
</svg>
