<?xml version="1.0" encoding="utf-8"?>
<!-- Generator: Adobe Illustrator 22.1.0, SVG Export Plug-In . SVG Version: 6.00 Build 0)  -->
<!DOCTYPE svg PUBLIC "-//W3C//DTD SVG 1.1//EN" "http://www.w3.org/Graphics/SVG/1.1/DTD/svg11.dtd">
<svg version="1.1" id="Layer_1" xmlns="http://www.w3.org/2000/svg" xmlns:xlink="http://www.w3.org/1999/xlink" x="0px" y="0px"
	 viewBox="0 0 693 130.5" style="enable-background:new 0 0 693 130.5;" xml:space="preserve">
<style type="text/css">
	.st0{fill:#FFFFFF;}
</style>
<g>
	<g>
		<polygon class="st0" points="50.1,76.2 74.7,76.2 68.9,41.4 		"/>
		<path class="st0" d="M26.2,0L0,128.9h158.3L182.5,0H26.2z M148.9,106.6h-17.2l6.6-35.9h-32.8L99,106.6l0,0l0,0H81.8h-1.6
			l-3.5-16.4H43.1l-9.4,16.4H15l50.8-85.5h14.8l9,41.8l7.8-41.8h17.2l-6.2,34.4h32.8l6.2-34.4h17.2L148.9,106.6z"/>
	</g>
</g>
<g>
	<path class="st0" d="M211.3,5.1H202V1.4h22.9v3.7h-9.3v34.1h-4.2L211.3,5.1L211.3,5.1z"/>
	<path class="st0" d="M226.5,20.4c0-11.6,9.1-19.7,19.7-19.7c11,0,19.7,8.5,19.7,19.5s-8.6,19.5-19.7,19.5
		C235,39.9,226.5,31.3,226.5,20.4L226.5,20.4z M230.7,20.3c0,8.9,6.7,15.9,15.6,15.9c8.9,0,15.4-7.2,15.4-15.9s-6.5-15.9-15.6-15.9
		C237.2,4.4,230.7,11.5,230.7,20.3L230.7,20.3z"/>
	<path class="st0" d="M271.8,39.2V1.4h5.9l14,31.7l14-31.7h5.9v37.8h-4l0.1-33.7l-14.7,33.7h-2.7L275.7,5.5l0.1,33.7H271.8z"/>
	<path class="st0" d="M317.4,20.4c0-11.6,9.1-19.7,19.7-19.7c11,0,19.7,8.5,19.7,19.5s-8.6,19.5-19.7,19.5
		C325.8,39.9,317.4,31.3,317.4,20.4L317.4,20.4z M321.6,20.3c0,8.9,6.7,15.9,15.6,15.9c8.9,0,15.4-7.2,15.4-15.9S346.1,4.4,337,4.4
		C328.3,4.4,321.6,11.5,321.6,20.3L321.6,20.3z"/>
	<path class="st0" d="M362.4,1.4h9.9c5.9,0,8.6,0.7,10.6,2c3.1,1.8,5.1,5.9,5.1,10.2c0,2.5-0.7,5.2-2.3,7.4c-2.3,3.1-5,3.8-8.5,4.1
		l9.3,14.2h-4.7l-10.6-16.6h1.3c2.7,0,6.4,0,8.4-2s2.8-4.2,2.8-6.9c0-2.8-1.4-5.8-3.7-7.4c-1.8-1.3-4.2-1.4-7.6-1.4h-5.9v34.1h-4.2
		V1.4H362.4z"/>
	<path class="st0" d="M395.8,1.4h9.9c5.9,0,8.6,0.7,10.6,2c3.1,1.8,5.1,5.9,5.1,10.2c0,2.5-0.7,5.2-2.3,7.4c-2.3,3.1-5,3.8-8.5,4.1
		l9.3,14.2h-4.7l-10.6-16.6h1.3c2.7,0,6.4,0,8.4-2c2-2,2.8-4.2,2.8-6.9c0-2.8-1.4-5.8-3.7-7.4c-1.8-1.3-4.2-1.4-7.6-1.4h-5.9v34.1
		h-4.2V1.4H395.8z"/>
	<path class="st0" d="M426.3,20.4c0-11.6,9.1-19.7,19.7-19.7c11,0,19.7,8.5,19.7,19.5s-8.6,19.5-19.7,19.5
		C434.8,39.9,426.3,31.3,426.3,20.4L426.3,20.4z M430.6,20.3c0,8.9,6.7,15.9,15.6,15.9c8.9,0,15.4-7.2,15.4-15.9S455.1,4.4,446,4.4
		C437.2,4.4,430.6,11.5,430.6,20.3L430.6,20.3z"/>
	<path class="st0" d="M467.8,1.4h4.4l8.6,32l8.4-32h3.1l8.5,32l8.5-32h4.2l-10.6,37.8h-4.1l-8.1-30.7l-8.1,30.7h-4.2L467.8,1.4z"/>
	<path class="st0" d="M520.9,1.4h3.5l-4,9.5h-3.1L520.9,1.4z"/>
	<path class="st0" d="M531.9,28.8c0.6,6.2,5.2,7.6,7.5,7.6c4,0,7.5-3,7.5-7.2c0-5.4-4.5-6.5-8.9-7.9c-3.1-0.8-9.6-2.8-9.6-10
		c-0.1-6.7,5.5-10.5,11.2-10.5c4.7,0,10.2,2.5,10.8,9.8h-4.2c-0.4-2.4-1.7-6.2-6.7-6.2c-3.8,0-6.9,2.5-6.9,6.5
		c0,4.7,3.7,5.7,9.3,7.6c3.5,1.4,9.2,3.4,9.2,10.3c0,6.2-4.7,11-11.7,11c-6.4,0-11.6-4-11.9-11.2h4.5V28.8z"/>
	<path class="st0" d="M576.1,5.1h-9.3V1.4h22.9v3.7h-9.3v34.1h-4.2V5.1z"/>
	<path class="st0" d="M595.5,1.4h20.9v3.7h-16.7v13.2h16.7V22h-16.7v13.4h16.7v3.7h-20.9V1.4z"/>
	<path class="st0" d="M658.6,29c-2.4,5.8-9.1,10.9-17.4,10.9c-11.2,0-19.7-8.6-19.7-19.5c0-10.8,8.4-19.5,19.7-19.5
		c9.3,0,15.3,6.2,17.4,11h-4.5c-1.3-2.3-5.5-7.4-12.9-7.4c-8.8,0-15.4,6.9-15.4,15.9s6.7,15.9,15.4,15.9c7.9,0,12-5.7,12.9-7.1h4.5
		V29z"/>
	<path class="st0" d="M664.1,39.2V1.4h4.2v16.8h18.3V1.4h4.2v37.8h-4.2V22h-18.3v17.3H664.1z"/>
	<path class="st0" d="M206.4,80.4h-12.9l2-10.5H233l-2,10.5h-12.7l-9.1,48.8h-11.9L206.4,80.4z"/>
	<path class="st0" d="M223.2,100.1c3.5-19,20.5-31.3,36.9-31.3c18,0,28.6,14,25.5,30.9c-3.1,16.8-19,30.9-37.1,30.9
		C230.4,130.4,220.4,116.1,223.2,100.1L223.2,100.1z M235.4,99.7c-2,10.9,4,20.2,15.6,20.2c12,0,21.1-10.5,22.8-20.2
		c1.8-9.9-3.3-20.4-15.4-20.4C246.4,79.3,237.4,89.1,235.4,99.7L235.4,99.7z"/>
	<path class="st0" d="M292.7,69.9h18.8c7.4,0,18,0.7,23.2,10.3c3.4,5.5,4,12,2.5,19.4c-3.1,16.7-14.3,29.7-36,29.7h-19.7L292.7,69.9
		z M295.7,118.8h8.5c12.9,0,19.4-8.5,21.4-19.1c0.8-4.7,0.7-9.6-1.6-13.3c-1.8-3.3-5.4-5.9-12.6-5.9h-8.5L295.7,118.8z"/>
	<path class="st0" d="M338.3,129.3h-13l35.1-59.4h10.5l12.5,59.4h-13l-2.1-11.6h-23.5L338.3,129.3z M362.5,84.1l-12.9,24.1h17.1
		L362.5,84.1z"/>
	<path class="st0" d="M391,108l-11.2-38.1h12.9l6.2,26.9l16.3-26.9H428L402.8,108l-4,21.2H387L391,108z"/>
	<path class="st0" d="M431.7,69.9h9.2l-11,18.1H422L431.7,69.9z"/>
	<path class="st0" d="M441.8,110.9c-1.1,8.1,4,9.5,6.5,9.5c4.5,0,8.8-3.7,9.5-7.9c0.8-5.1-3.1-6.4-10.8-9.6
		c-4.2-1.6-13.9-5.2-11.7-16.6c2.1-11.5,13.3-17.6,22.9-17.6c7.9,0,17.6,4.1,15.6,17.3H462c0-2.7-0.1-7.4-6.1-7.4
		c-4,0-7.9,2.7-8.6,6.8c-0.8,4.4,2.1,5.5,11.5,9.8c8.2,4,12.5,8.2,11,16.7c-1.7,9.5-9.3,18.4-23.2,18.4c-13.4,0-19-8.1-16.7-19.5
		h11.9V110.9z"/>
	<path class="st0" d="M531.8,111.1l7.4-41.2h11.5l-11,59.4H529l-19.7-41l-7.4,41h-11.5l11-59.4h10.6L531.8,111.1z"/>
	<path class="st0" d="M555.7,69.9H589l-2,10.5h-21.4l-2.5,13.4H584l-2,10.5h-20.9l-2.7,14.3h21.4l-2,10.5h-33.3L555.7,69.9z"/>
	<path class="st0" d="M587.4,69.9h12.2l2.3,43l18.3-43h9.2l2.5,43l18-43H662l-27,59.4h-10.8l-2.7-42.2l-18.3,42h-11L587.4,69.9z"/>
	<path class="st0" d="M660.7,110.9c-1.1,8.1,4,9.5,6.5,9.5c4.5,0,8.8-3.7,9.5-7.9c0.8-5.1-3.1-6.4-10.8-9.6
		c-4.1-1.6-13.9-5.2-11.7-16.6c2.1-11.5,13.3-17.6,22.9-17.6c7.9,0,17.6,4.1,15.6,17.3H681c0-2.7-0.1-7.4-6.1-7.4
		c-4,0-7.9,2.7-8.6,6.8c-0.8,4.4,2.1,5.5,11.5,9.8c8.2,4,12.5,8.2,11,16.7c-1.7,9.5-9.3,18.4-23.2,18.4c-13.4,0-19-8.1-16.7-19.5
		h11.9V110.9z"/>
</g>
</svg>
