<?xml version="1.0" encoding="utf-8"?>
<!-- Generator: Adobe Illustrator 22.1.0, SVG Export Plug-In . SVG Version: 6.00 Build 0)  -->
<!DOCTYPE svg PUBLIC "-//W3C//DTD SVG 1.1//EN" "http://www.w3.org/Graphics/SVG/1.1/DTD/svg11.dtd">
<svg version="1.1" id="Layer_1" xmlns="http://www.w3.org/2000/svg" xmlns:xlink="http://www.w3.org/1999/xlink" x="0px" y="0px"
	 viewBox="0 0 192 33" style="enable-background:new 0 0 192 33;" xml:space="preserve">
<style type="text/css">
	.st0{fill:#FFFFFF;}
	.st1{fill:#E52227;}
</style>
<g>
	<path class="st0" d="M53.7,9.4h-4.6l0.7-3.8h13.5l-0.7,3.8H58l-3.3,17.5h-4.3L53.7,9.4z"/>
	<path class="st0" d="M64.5,5.6h12l-0.7,3.8h-7.7l-0.9,4.8h6.8L73.3,18h-6.8l-1,5.2h7.7l-0.7,3.8h-12L64.5,5.6z"/>
	<path class="st0" d="M95.4,19.8c-2.1,4.4-6.9,7.5-11.8,7.5c-6.5,0-10.2-5.2-9.1-11.1c1-5.7,6.5-11,13.2-11c6.1,0,8.8,4.6,9,7.7
		h-4.5C91.8,11.4,90.3,9,86.9,9c-4.1,0-7.5,3.5-8.2,7.3c-0.7,3.9,1.4,7.3,5.5,7.3c3.8,0,6.1-3,6.6-3.8H95.4z"/>
	<path class="st0" d="M93.8,26.9l3.9-21.3h4.3l-1.6,8.6h8.2l1.6-8.6h4.3l-3.9,21.3h-4.3l1.7-9h-8.2l-1.7,9H93.8z"/>
	<path class="st0" d="M133.1,20.4l2.6-14.8h4.1L136,26.9h-3.8l-7.1-14.7l-2.6,14.7h-4.1l3.9-21.3h3.8L133.1,20.4z"/>
	<path class="st0" d="M141.4,5.6h12l-0.7,3.8H145l-0.9,4.8h6.8l-0.7,3.8h-6.8l-1,5.2h7.7l-0.7,3.8h-12L141.4,5.6z"/>
	<path class="st0" d="M152.5,5.6h4.4l0.8,15.4l6.6-15.4h3.3l0.9,15.5l6.5-15.5h4.3l-9.7,21.3h-3.9l-1-15.1l-6.5,15.1h-4L152.5,5.6z"
		/>
	<path class="st0" d="M179.7,20.3c-0.4,2.9,1.4,3.4,2.4,3.4c1.6,0,3.1-1.3,3.4-2.8c0.3-1.8-1.1-2.3-3.9-3.5c-1.5-0.6-5-1.9-4.2-5.9
		c0.7-4.1,4.8-6.3,8.2-6.3c2.8,0,6.3,1.5,5.6,6.2H187c0-1-0.1-2.6-2.2-2.6c-1.4,0-2.8,1-3.1,2.4c-0.3,1.6,0.7,2,4.1,3.5
		c3,1.4,4.5,3,3.9,6c-0.6,3.4-3.3,6.6-8.4,6.6c-4.8,0-6.8-2.9-6-7H179.7z"/>
</g>
<path class="st0" d="M15.8,3.8L1.7,32.2h37.6l5.4-29.1L15.8,3.8z"/>
<g>
	<polygon class="st1" points="14.2,19.5 20.5,19.5 19,10.6 	"/>
	<path class="st1" d="M7.3,0L0.6,33h41.3l6.2-33H7.3z M39.5,27.3h-4.4l1.7-9.2h-8.4l-1.7,9.2l0,0h0h-4.4h-0.4L21,23.1h-8.6L10,27.3
		H5.2L18.2,5.4H22l2.3,10.7l2-10.7h4.4l-1.6,8.8h8.4l1.6-8.8h4.4L39.5,27.3z"/>
</g>
</svg>
